<svg xmlns="http://www.w3.org/2000/svg" viewBox="0 0 32 32" fill="none">
  <rect width="32" height="32" rx="8" fill="#5B5EA6"/>
  <path d="M8 22V13.5C8 12.672 8.672 12 9.5 12H13V10.5C13 9.672 13.672 9 14.5 9H17.5C18.328 9 19 9.672 19 10.5V12H22.5C23.328 12 24 12.672 24 13.5V22C24 22.828 23.328 23.5 22.5 23.5H9.5C8.672 23.5 8 22.828 8 22Z" stroke="white" stroke-width="1.5" stroke-linejoin="round"/>
  <path d="M14.5 12H17.5V10.5H14.5V12Z" stroke="white" stroke-width="1.5" stroke-linejoin="round"/>
  <path d="M8 16H24" stroke="white" stroke-width="1.5"/>
  <circle cx="16" cy="16" r="2" fill="white"/>
</svg>
